# xmcd
#
# Track frame offsets: 
#        150
#        12897
#        25882
#        40195
#        54087
#        67540
#        80285
#        92285
#        104420
#        111302
#        126150
#        140600
#        155190
#        168085
#
# Disc length: 2397 seconds
#
# Revision: 0
# Processed by: cddbd v1.5.1PL0 Copyright (c) Steve Scherf et al.
# Submitted via: ExactAudioCopy v0.95a5
#
DISCID=a4095b0e
DTITLE=REBETIKA - Various - REBETIKA - CD 4
DYEAR=1900
DGENRE=Greek
TTITLE0=Bournovalia
TTITLE1=Manaki Mou, Manaki Mou
TTITLE2=Tora Ton Xaro Kartero
TTITLE3=To Tourkolimano
TTITLE4=Xorepse Mou, Xorepse Mou
TTITLE5=Ta Kavourakia
TTITLE6=Se Touto to Paliospito
TTITLE7=Sirtos Politikos
TTITLE8=Stin Taverna tou Giarepi
TTITLE9=Pare to Daxtilidi Mou
TTITLE10=Ton Logo sou Den Kratises
TTITLE11=Stin Kaliva tin Dikia Mou (To Paploma)
TTITLE12=Extra 1
TTITLE13=Extra 2
EXTD=
EXTT0=
EXTT1=
EXTT2=
EXTT3=
EXTT4=
EXTT5=
EXTT6=
EXTT7=
EXTT8=
EXTT9=
EXTT10=
EXTT11=
EXTT12=
EXTT13=
PLAYORDER=
